<svg xmlns="http://www.w3.org/2000/svg" width="60" height="60" fill="none" viewBox="0 0 60 60">
  <mask id="a" width="60" height="60" x="0" y="0" mask-type="alpha" maskUnits="userSpaceOnUse">
    <circle cx="30" cy="30" r="30" fill="#D7D7F8"/>
  </mask>
  <g mask="url(#a)">
    <circle cx="30" cy="30" r="30" fill="#D7D7F8"/>
    <mask id="b" width="40" height="30" x="10" y="12" mask-type="alpha" maskUnits="userSpaceOnUse">
      <rect width="40" height="28.75" x="10" y="12.5" fill="#695DE9" rx="6"/>
    </mask>
    <g mask="url(#b)">
      <rect width="40" height="28.75" x="10" y="12.5" fill="#695DE9" rx="6"/>
      <circle cx="43" cy="19" r="10" fill="#4F46B5"/>
    </g>
    <circle cx="43" cy="18" r="9" fill="#2B2467"/>
    <path fill="#fff" d="M42.51 13.077a.514.514 0 0 1 .98 0l.838 2.581a.514.514 0 0 0 .489.356h2.714c.498 0 .706.637.302.93l-2.195 1.595a.514.514 0 0 0-.187.575l.838 2.581a.514.514 0 0 1-.79.575l-2.197-1.595a.515.515 0 0 0-.604 0l-2.196 1.595a.514.514 0 0 1-.791-.575l.838-2.58a.514.514 0 0 0-.187-.576l-2.195-1.595a.514.514 0 0 1 .302-.93h2.714c.223 0 .42-.144.49-.356l.838-2.581Z"/>
    <path fill="#695DE9" d="M25 40h10v7.5H25z"/>
    <rect width="25" height="2.5" x="17.5" y="47.5" fill="#695DE9" rx="1.25"/>
    <path stroke="#fff" d="M32.688 35.313H15.5M19.5 18.313h-4"/>
    <path stroke="#B7B0F4" d="M26.438 29.5H15.5"/>
  </g>
</svg>