<svg xmlns="http://www.w3.org/2000/svg" width="60" height="60" fill="none" viewBox="0 0 60 60">
  <mask id="a" width="60" height="60" x="0" y="0" mask-type="alpha" maskUnits="userSpaceOnUse">
    <circle cx="30" cy="30" r="30" fill="#D7D7F8"/>
  </mask>
  <g mask="url(#a)">
    <circle cx="30" cy="30" r="30" fill="#D7D7F8"/>
    <mask id="b" width="30" height="49" x="12" y="16" mask-type="alpha" maskUnits="userSpaceOnUse">
      <path fill="#695DE9" d="M12 22a6 6 0 0 1 6-6h18a6 6 0 0 1 6 6v43H12V22Z"/>
    </mask>
    <g mask="url(#b)">
      <path fill="#695DE9" d="M12 22a6 6 0 0 1 6-6h18a6 6 0 0 1 6 6v43H12V22Z"/>
      <path fill="#B7B0F4" d="M16 42a3 3 0 0 1 3-3h9a3 3 0 0 1 3 3v19a3 3 0 0 1-3 3h-9a3 3 0 0 1-3-3V42Z"/>
      <path fill="#fff" d="M34 42a3 3 0 0 1 3-3h9a3 3 0 0 1 3 3v19a3 3 0 0 1-3 3h-9a3 3 0 0 1-3-3V42Z"/>
      <circle cx="42" cy="23" r="10" fill="#4F46B5"/>
    </g>
    <circle cx="42" cy="21" r="9" fill="#2B2467"/>
    <path fill="#fff" d="M41.51 16.077a.514.514 0 0 1 .98 0l.838 2.581a.514.514 0 0 0 .489.355h2.714c.498 0 .706.638.302.93l-2.195 1.596a.514.514 0 0 0-.187.575l.838 2.581a.514.514 0 0 1-.79.575l-2.197-1.595a.515.515 0 0 0-.604 0l-2.196 1.595a.514.514 0 0 1-.791-.575l.838-2.58a.514.514 0 0 0-.187-.576l-2.195-1.595a.514.514 0 0 1 .302-.93h2.714c.223 0 .42-.144.49-.356l.838-2.581Z"/>
    <path stroke="#fff" d="M27 22H17"/>
    <path stroke="#B7B0F4" d="M24 27h-7"/>
  </g>
</svg>