<svg xmlns="http://www.w3.org/2000/svg" width="25" height="25" fill="none" viewBox="0 0 25 25">
  <g stroke="#7E8CAC">
    <path d="M12.903 15.414a3 3 0 1 0 0-6 3 3 0 0 0 0 6Z"/>
    <path d="M20.303 15.414a1.65 1.65 0 0 0 .33 1.82l.06.06a1.998 1.998 0 0 1 0 2.83 2.001 2.001 0 0 1-2.83 0l-.06-.06a1.65 1.65 0 0 0-1.82-.33 1.65 1.65 0 0 0-1 1.51v.17a2 2 0 0 1-4 0v-.09a1.65 1.65 0 0 0-1.08-1.51 1.649 1.649 0 0 0-1.82.33l-.06.06a2.002 2.002 0 1 1-2.83-2.83l.06-.06a1.65 1.65 0 0 0 .33-1.82 1.65 1.65 0 0 0-1.51-1h-.17a2 2 0 0 1 0-4h.09a1.65 1.65 0 0 0 1.51-1.08 1.65 1.65 0 0 0-.33-1.82l-.06-.06a2 2 0 1 1 2.83-2.83l.06.06a1.65 1.65 0 0 0 1.82.33h.08a1.65 1.65 0 0 0 1-1.51v-.17a2 2 0 1 1 4 0v.09a1.65 1.65 0 0 0 1 1.51 1.65 1.65 0 0 0 1.82-.33l.06-.06a2 2 0 1 1 2.83 2.83l-.06.06a1.65 1.65 0 0 0-.33 1.82v.08a1.65 1.65 0 0 0 1.51 1h.17a2 2 0 1 1 0 4h-.09a1.649 1.649 0 0 0-1.51 1Z"/>
  </g>
</svg>