<svg xmlns="http://www.w3.org/2000/svg" width="120" height="120" fill="none" viewBox="0 0 120 120">
  <circle cx="60" cy="60" r="60" fill="#E7EAF5"/>
  <path fill="#0C145A" d="M60 52.5c-2.936 0-5.376 1.795-6.25 4.211a1.5 1.5 0 0 1-1.22.978c-2.615.335-4.53 2.446-4.53 4.882 0 2.654 2.28 4.929 5.25 4.929a1.5 1.5 0 0 1 0 3c-4.486 0-8.25-3.482-8.25-7.929 0-3.771 2.714-6.854 6.272-7.698C52.799 51.676 56.156 49.5 60 49.5c4.761 0 8.807 3.36 9.496 7.852 3.099.617 5.504 3.245 5.504 6.505 0 3.737-3.159 6.643-6.9 6.643a1.5 1.5 0 0 1 0-3c2.224 0 3.9-1.7 3.9-3.643 0-1.944-1.676-3.643-3.9-3.643a1.5 1.5 0 0 1-1.5-1.5c0-3.364-2.885-6.214-6.6-6.214Z"/>
  <path fill="#0C145A" d="M60 70.5a1.5 1.5 0 0 1-1.5-1.5v-9a1.5 1.5 0 0 1 3 0v9a1.5 1.5 0 0 1-1.5 1.5Z"/>
  <path fill="#0C145A" d="M55.94 64.06a1.5 1.5 0 0 1 0-2.12l3-3a1.5 1.5 0 0 1 2.12 2.12l-3 3a1.5 1.5 0 0 1-2.12 0Z"/>
  <path fill="#0C145A" d="M58.94 58.94a1.5 1.5 0 0 1 2.12 0l3 3a1.5 1.5 0 0 1-2.12 2.12l-3-3a1.5 1.5 0 0 1 0-2.12Z"/>
</svg>